<mxfile host="app.diagrams.net" modified="2024-02-28T11:02:45.832Z" agent="Mozilla/5.0 (Macintosh; Intel Mac OS X 10_15_7) AppleWebKit/537.36 (KHTML, like Gecko) Chrome/121.0.0.0 Safari/537.36" version="23.1.7" etag="gSfyCHW5O0mZ3hAx2buS" type="github">
  <diagram name="第 1 页" id="DMhewFTE3J4rGOTjqDrK">
    <mxGraphModel>
      <root>
        <mxCell id="0" />
        <mxCell id="1" parent="0" />
      </root>
    </mxGraphModel>
  </diagram>
</mxfile>
